<svg width="845" height="320" viewBox="0 0 845 320" fill="none" xmlns="http://www.w3.org/2000/svg">
<g clip-path="url(#clip0_1_2)">
<path d="M155.528 96.8622V129.496H211.122V159.829H155.528V195.229H218.41V226.729H114.017V65.3622H218.41V96.8622H155.528Z" fill="white"/>
<path d="M286.876 65.3622V226.729H245.365V65.3622H286.876Z" fill="white"/>
<path d="M439.583 65.3622V96.8622H394.411V226.729H352.9V96.8622H307.763V65.3622H439.583Z" fill="white"/>
<path d="M501.986 96.8622V129.496H557.58V159.829H501.986V195.229H564.868V226.729H460.475V65.3622H564.868V96.8622H501.986Z" fill="white"/>
<path d="M690.617 226.729L633.333 155.462V226.729H591.823V65.3622H633.333V136.162L690.124 65.3622H738.958L672.908 144.429L741.353 226.729H690.617Z" fill="white"/>
<path d="M24.1881 262.509H40.3487V266.109H28.1314V272.542H38.3067V276.142H28.1314V283.176H40.3487V286.776H24.1881V262.509Z" fill="white"/>
<path d="M62.6132 283.176V286.776H46.6638V262.509H50.6072V283.176H62.6132Z" fill="white"/>
<path d="M68.5905 262.509H84.7511V266.109H72.5338V272.542H82.7091V276.142H72.5338V283.176H84.7511V286.776H68.5905V262.509Z" fill="white"/>
<path d="M110.536 283.809C110.017 284.367 109.304 284.901 108.389 285.409C107.473 285.901 106.417 286.309 105.22 286.642C104.041 286.951 102.791 287.109 101.453 287.109C99.173 287.109 97.1045 286.601 95.256 285.576C93.3988 284.559 91.9288 283.109 90.855 281.242C89.7723 279.359 89.2354 277.159 89.2354 274.642C89.2354 272.867 89.5611 271.234 90.2212 269.742C90.8726 268.234 91.788 266.926 92.9675 265.809C94.1382 264.701 95.4761 263.842 96.9812 263.242C98.504 262.626 100.115 262.309 101.805 262.309C103.187 262.309 104.481 262.509 105.678 262.909C106.892 263.309 107.966 263.834 108.882 264.476C109.797 265.101 110.51 265.776 111.029 266.509L108.389 269.109C107.473 268.226 106.461 267.492 105.361 266.909C104.278 266.334 103.09 266.042 101.805 266.042C100.326 266.042 98.9265 266.392 97.615 267.076C96.3211 267.767 95.2648 268.759 94.4462 270.042C93.6453 271.334 93.2492 272.867 93.2492 274.642C93.2492 276.576 93.6541 278.201 94.4815 279.509C95.3 280.801 96.3827 281.767 97.7206 282.409C99.0761 283.034 100.546 283.342 102.122 283.342C103.548 283.342 104.815 283.076 105.924 282.542C107.024 281.992 107.905 281.392 108.565 280.742L110.536 283.809Z" fill="white"/>
<path d="M120.78 286.776V266.109H113.598V262.509H132.152V266.109H124.759V286.776H120.78Z" fill="white"/>
<path d="M156.019 270.242C156.019 271.692 155.561 273.042 154.645 274.309C153.73 275.559 152.533 276.476 151.054 277.076L157.04 286.809L152.251 286.776L146.829 277.642H140.949V286.776H137.006V262.509H147.921C149.259 262.509 150.535 262.826 151.758 263.442C152.999 264.067 154.021 264.959 154.822 266.109C155.614 267.267 156.019 268.642 156.019 270.242ZM147.252 266.109H140.949V274.042H148.273C149.443 274.042 150.35 273.659 150.984 272.876C151.635 272.101 151.97 271.209 151.97 270.209C151.97 268.942 151.494 267.942 150.561 267.209C149.646 266.476 148.537 266.109 147.252 266.109Z" fill="white"/>
<path d="M173.714 286.776H161.496V283.309H165.616V265.976H161.496V262.509H173.714V265.976H169.594V283.309H173.714V286.776Z" fill="white"/>
<path d="M199.414 283.809C198.895 284.367 198.182 284.901 197.267 285.409C196.351 285.901 195.295 286.309 194.098 286.642C192.919 286.951 191.669 287.109 190.331 287.109C188.051 287.109 185.983 286.601 184.134 285.576C182.277 284.559 180.807 283.109 179.733 281.242C178.65 279.359 178.113 277.159 178.113 274.642C178.113 272.867 178.439 271.234 179.099 269.742C179.751 268.234 180.666 266.926 181.846 265.809C183.016 264.701 184.354 263.842 185.859 263.242C187.382 262.626 188.993 262.309 190.683 262.309C192.065 262.309 193.359 262.509 194.556 262.909C195.77 263.309 196.844 263.834 197.76 264.476C198.675 265.101 199.388 265.776 199.907 266.509L197.267 269.109C196.351 268.226 195.339 267.492 194.239 266.909C193.156 266.334 191.968 266.042 190.683 266.042C189.204 266.042 187.805 266.392 186.493 267.076C185.199 267.767 184.143 268.759 183.324 270.042C182.523 271.334 182.127 272.867 182.127 274.642C182.127 276.576 182.532 278.201 183.359 279.509C184.178 280.801 185.261 281.767 186.599 282.409C187.954 283.034 189.424 283.342 191 283.342C192.426 283.342 193.693 283.076 194.802 282.542C195.902 281.992 196.783 281.392 197.443 280.742L199.414 283.809Z" fill="white"/>
<path d="M221.699 286.776L219.305 280.742H208.567L206.137 286.776H202.124L212.052 262.509H216.066L225.924 286.776H221.699ZM211.982 272.276L210.045 277.142H217.862L215.855 272.142C215.52 271.342 215.195 270.476 214.869 269.542C214.561 268.592 214.253 267.642 213.954 266.709C213.601 267.692 213.258 268.667 212.933 269.642C212.598 270.601 212.281 271.476 211.982 272.276Z" fill="white"/>
<path d="M246.373 283.176V286.776H230.423V262.509H234.367V283.176H246.373Z" fill="white"/>
<path d="M270.204 287.109C268.374 287.109 266.754 286.742 265.346 286.009C263.955 285.276 262.855 284.334 262.036 283.176C261.235 282.001 260.839 280.759 260.839 279.442C260.839 277.826 261.279 276.359 262.177 275.042C263.066 273.734 264.465 272.676 266.367 271.876C265.962 271.301 265.663 270.726 265.451 270.142C265.258 269.542 265.17 268.942 265.17 268.342C265.17 267.234 265.469 266.209 266.085 265.276C266.692 264.342 267.564 263.601 268.69 263.042C269.817 262.467 271.164 262.176 272.739 262.176C274.447 262.176 275.943 262.609 277.211 263.476C278.478 264.342 279.341 265.426 279.816 266.709L276.964 268.442C276.489 267.359 275.917 266.576 275.239 266.109C274.553 265.626 273.725 265.376 272.739 265.376C271.472 265.376 270.565 265.659 270.028 266.209C269.509 266.742 269.254 267.426 269.254 268.242C269.254 268.959 269.5 269.726 269.993 270.542C270.486 271.342 271.058 272.126 271.718 272.876C272.396 273.634 273.021 274.301 273.584 274.876L277.915 279.476C278.241 278.809 278.522 278.134 278.76 277.442C278.989 276.759 279.165 276.067 279.288 275.376H282.668C282.501 276.509 282.21 277.642 281.788 278.776C281.383 279.892 280.855 280.926 280.204 281.876C281.233 282.926 282.175 283.892 283.02 284.776C283.865 285.667 284.508 286.334 284.957 286.776H280.063C279.658 286.376 279.271 286.001 278.901 285.642C278.522 285.267 278.17 284.901 277.845 284.542C276.859 285.342 275.732 285.976 274.465 286.442C273.215 286.884 271.798 287.109 270.204 287.109ZM264.818 278.909C264.818 279.709 265.029 280.501 265.451 281.276C265.874 282.034 266.525 282.659 267.423 283.142C268.338 283.609 269.509 283.842 270.944 283.842C271.903 283.842 272.757 283.701 273.514 283.409C274.289 283.126 274.993 282.734 275.627 282.242L269.817 276.109C269.553 275.826 269.307 275.559 269.078 275.309C268.84 275.042 268.602 274.792 268.374 274.542C267.036 274.967 266.103 275.567 265.592 276.342C265.073 277.101 264.818 277.959 264.818 278.909Z" fill="white"/>
<path d="M299.9 262.509H316.061V266.109H303.844V272.542H314.019V276.142H303.844V283.176H316.061V286.776H299.9V262.509Z" fill="white"/>
<path d="M338.325 283.176V286.776H322.376V262.509H326.319V283.176H338.325Z" fill="white"/>
<path d="M344.303 262.509H360.463V266.109H348.246V272.542H358.421V276.142H348.246V283.176H360.463V286.776H344.303V262.509Z" fill="white"/>
<path d="M386.249 283.809C385.729 284.367 385.016 284.901 384.101 285.409C383.186 285.901 382.129 286.309 380.932 286.642C379.753 286.951 378.503 287.109 377.165 287.109C374.885 287.109 372.817 286.601 370.968 285.576C369.111 284.559 367.641 283.109 366.567 281.242C365.485 279.359 364.948 277.159 364.948 274.642C364.948 272.867 365.273 271.234 365.934 269.742C366.585 268.234 367.5 266.926 368.68 265.809C369.85 264.701 371.188 263.842 372.694 263.242C374.216 262.626 375.827 262.309 377.517 262.309C378.899 262.309 380.193 262.509 381.39 262.909C382.605 263.309 383.679 263.834 384.594 264.476C385.509 265.101 386.222 265.776 386.742 266.509L384.101 269.109C383.186 268.226 382.173 267.492 381.073 266.909C379.99 266.334 378.802 266.042 377.517 266.042C376.038 266.042 374.639 266.392 373.327 267.076C372.033 267.767 370.977 268.759 370.159 270.042C369.358 271.334 368.961 272.867 368.961 274.642C368.961 276.576 369.366 278.201 370.194 279.509C371.012 280.801 372.095 281.767 373.433 282.409C374.788 283.034 376.258 283.342 377.834 283.342C379.26 283.342 380.527 283.076 381.636 282.542C382.737 281.992 383.617 281.392 384.277 280.742L386.249 283.809Z" fill="white"/>
<path d="M396.492 286.776V266.109H389.31V262.509H407.865V266.109H400.471V286.776H396.492Z" fill="white"/>
<path d="M431.731 270.242C431.731 271.692 431.273 273.042 430.358 274.309C429.442 275.559 428.245 276.476 426.767 277.076L432.752 286.809L427.964 286.776L422.542 277.642H416.662V286.776H412.718V262.509H423.633C424.971 262.509 426.247 262.826 427.471 263.442C428.712 264.067 429.733 264.959 430.534 266.109C431.326 267.267 431.731 268.642 431.731 270.242ZM422.964 266.109H416.662V274.042H423.985C425.156 274.042 426.062 273.659 426.696 272.876C427.347 272.101 427.682 271.209 427.682 270.209C427.682 268.942 427.207 267.942 426.274 267.209C425.358 266.476 424.249 266.109 422.964 266.109Z" fill="white"/>
<path d="M461.432 274.642C461.432 276.401 461.124 278.034 460.516 279.542C459.9 281.059 459.038 282.376 457.911 283.509C456.784 284.642 455.455 285.534 453.933 286.176C452.401 286.792 450.729 287.109 448.898 287.109C447.067 287.109 445.377 286.792 443.828 286.176C442.296 285.534 440.976 284.642 439.849 283.509C438.723 282.376 437.851 281.059 437.244 279.542C436.628 278.034 436.328 276.401 436.328 274.642C436.328 272.892 436.628 271.259 437.244 269.742C437.851 268.234 438.723 266.909 439.849 265.776C440.976 264.642 442.296 263.767 443.828 263.142C445.377 262.501 447.067 262.176 448.898 262.176C450.729 262.176 452.401 262.501 453.933 263.142C455.455 263.767 456.784 264.642 457.911 265.776C459.038 266.909 459.9 268.234 460.516 269.742C461.124 271.259 461.432 272.892 461.432 274.642ZM457.418 274.642C457.418 272.959 457.048 271.442 456.327 270.109C455.596 268.776 454.584 267.734 453.299 266.976C452.005 266.201 450.535 265.809 448.898 265.809C447.208 265.809 445.711 266.201 444.426 266.976C443.159 267.734 442.155 268.776 441.434 270.109C440.703 271.442 440.342 272.959 440.342 274.642C440.342 276.334 440.703 277.842 441.434 279.176C442.155 280.509 443.159 281.567 444.426 282.342C445.711 283.101 447.208 283.476 448.898 283.476C450.535 283.476 452.005 283.101 453.299 282.342C454.584 281.567 455.596 280.509 456.327 279.176C457.048 277.826 457.418 276.309 457.418 274.642Z" fill="white"/>
<path d="M484.67 262.509H488.649V286.776H485.023L470.129 268.276C470.27 269.676 470.393 271.076 470.517 272.476C470.658 273.876 470.728 275.276 470.728 276.676V286.776H466.785V262.509H470.341L485.234 281.409C485.023 279.726 484.864 277.901 484.776 275.942C484.706 273.992 484.67 272.167 484.67 270.476V262.509Z" fill="white"/>
<path d="M507.079 286.776H494.862V283.309H498.982V265.976H494.862V262.509H507.079V265.976H502.96V283.309H507.079V286.776Z" fill="white"/>
<path d="M532.78 283.809C532.261 284.367 531.548 284.901 530.633 285.409C529.717 285.901 528.661 286.309 527.464 286.642C526.284 286.951 525.035 287.109 523.697 287.109C521.417 287.109 519.348 286.601 517.5 285.576C515.643 284.559 514.173 283.109 513.099 281.242C512.016 279.359 511.479 277.159 511.479 274.642C511.479 272.867 511.805 271.234 512.465 269.742C513.116 268.234 514.032 266.926 515.211 265.809C516.382 264.701 517.72 263.842 519.225 263.242C520.748 262.626 522.359 262.309 524.049 262.309C525.431 262.309 526.725 262.509 527.922 262.909C529.136 263.309 530.21 263.834 531.126 264.476C532.041 265.101 532.754 265.776 533.273 266.509L530.633 269.109C529.717 268.226 528.705 267.492 527.605 266.909C526.522 266.334 525.334 266.042 524.049 266.042C522.57 266.042 521.17 266.392 519.859 267.076C518.565 267.767 517.509 268.759 516.69 270.042C515.889 271.334 515.493 272.867 515.493 274.642C515.493 276.576 515.898 278.201 516.725 279.509C517.544 280.801 518.627 281.767 519.965 282.409C521.32 283.034 522.79 283.342 524.366 283.342C525.791 283.342 527.059 283.076 528.168 282.542C529.268 281.992 530.149 281.392 530.809 280.742L532.78 283.809Z" fill="white"/>
<path d="M539.116 279.476C540.119 280.834 541.167 281.892 542.249 282.642C543.323 283.401 544.732 283.776 546.474 283.776C547.293 283.776 548.076 283.659 548.833 283.409C549.608 283.142 550.224 282.767 550.699 282.276C551.192 281.792 551.439 281.209 551.439 280.542C551.439 279.392 550.919 278.492 549.89 277.842C548.851 277.201 547.399 276.701 545.524 276.342C543.13 275.876 541.211 275.076 539.785 273.942C538.377 272.792 537.672 271.126 537.672 268.942C537.672 267.567 538.077 266.376 538.905 265.376C539.723 264.359 540.806 263.567 542.144 263.009C543.482 262.459 544.934 262.176 546.51 262.176C548.525 262.176 550.259 262.542 551.72 263.276C553.199 264.009 554.361 265.067 555.206 266.442L552.389 269.042C551.729 268.001 550.893 267.159 549.89 266.509C548.904 265.842 547.742 265.509 546.404 265.509C545.066 265.509 543.939 265.809 543.024 266.409C542.109 267.009 541.651 267.826 541.651 268.842C541.651 270.026 542.126 270.892 543.094 271.442C544.054 271.976 545.321 272.409 546.897 272.742C548.349 273.009 549.722 273.434 551.016 274.009C552.301 274.592 553.358 275.334 554.185 276.242C555.004 277.159 555.417 278.267 555.417 279.576C555.417 281.892 554.581 283.726 552.918 285.076C551.245 286.434 548.974 287.109 546.087 287.109C544.089 287.109 542.285 286.742 540.665 286.009C539.045 285.276 537.62 284.076 536.405 282.409L539.116 279.476Z" fill="white"/>
<path d="M576.115 286.776V266.109H568.933V262.509H587.488V266.109H580.094V286.776H576.115Z" fill="white"/>
<path d="M592.341 262.509H608.502V266.109H596.285V272.542H606.46V276.142H596.285V283.176H608.502V286.776H592.341V262.509Z" fill="white"/>
<path d="M634.287 283.809C633.768 284.367 633.055 284.901 632.14 285.409C631.224 285.901 630.168 286.309 628.971 286.642C627.791 286.951 626.541 287.109 625.204 287.109C622.924 287.109 620.855 286.601 619.007 285.576C617.15 284.559 615.68 283.109 614.606 281.242C613.523 279.359 612.986 277.159 612.986 274.642C612.986 272.867 613.312 271.234 613.972 269.742C614.623 268.234 615.539 266.926 616.718 265.809C617.889 264.701 619.227 263.842 620.732 263.242C622.255 262.626 623.866 262.309 625.556 262.309C626.938 262.309 628.231 262.509 629.429 262.909C630.643 263.309 631.717 263.834 632.633 264.476C633.548 265.101 634.261 265.776 634.78 266.509L632.14 269.109C631.224 268.226 630.212 267.492 629.112 266.909C628.029 266.334 626.841 266.042 625.556 266.042C624.077 266.042 622.677 266.392 621.366 267.076C620.072 267.767 619.016 268.759 618.197 270.042C617.396 271.334 617 272.867 617 274.642C617 276.576 617.405 278.201 618.232 279.509C619.051 280.801 620.134 281.767 621.471 282.409C622.827 283.034 624.297 283.342 625.873 283.342C627.298 283.342 628.566 283.076 629.675 282.542C630.775 281.992 631.656 281.392 632.316 280.742L634.287 283.809Z" fill="white"/>
<path d="M643.616 262.509V272.876H656.396V262.509H660.375V286.776H656.396V276.476H643.616V286.776H639.672V262.509H643.616Z" fill="white"/>
<path d="M685.415 262.509H689.393V286.776H685.767L670.874 268.276C671.015 269.676 671.138 271.076 671.261 272.476C671.402 273.876 671.472 275.276 671.472 276.676V286.776H667.529V262.509H671.085L685.978 281.409C685.767 279.726 685.608 277.901 685.52 275.942C685.45 273.992 685.415 272.167 685.415 270.476V262.509Z" fill="white"/>
<path d="M719.83 274.642C719.83 276.401 719.522 278.034 718.914 279.542C718.298 281.059 717.436 282.376 716.309 283.509C715.182 284.642 713.853 285.534 712.33 286.176C710.799 286.792 709.127 287.109 707.296 287.109C705.465 287.109 703.775 286.792 702.226 286.176C700.694 285.534 699.374 284.642 698.247 283.509C697.12 282.376 696.249 281.059 695.642 279.542C695.026 278.034 694.726 276.401 694.726 274.642C694.726 272.892 695.026 271.259 695.642 269.742C696.249 268.234 697.12 266.909 698.247 265.776C699.374 264.642 700.694 263.767 702.226 263.142C703.775 262.501 705.465 262.176 707.296 262.176C709.127 262.176 710.799 262.501 712.33 263.142C713.853 263.767 715.182 264.642 716.309 265.776C717.436 266.909 718.298 268.234 718.914 269.742C719.522 271.259 719.83 272.892 719.83 274.642ZM715.816 274.642C715.816 272.959 715.446 271.442 714.725 270.109C713.994 268.776 712.982 267.734 711.697 266.976C710.403 266.201 708.933 265.809 707.296 265.809C705.606 265.809 704.109 266.201 702.824 266.976C701.557 267.734 700.553 268.776 699.832 270.109C699.101 271.442 698.74 272.959 698.74 274.642C698.74 276.334 699.101 277.842 699.832 279.176C700.553 280.509 701.557 281.567 702.824 282.342C704.109 283.101 705.606 283.476 707.296 283.476C708.933 283.476 710.403 283.101 711.697 282.342C712.982 281.567 713.994 280.509 714.725 279.176C715.446 277.826 715.816 276.309 715.816 274.642Z" fill="white"/>
<path d="M741.132 283.176V286.776H725.183V262.509H729.126V283.176H741.132Z" fill="white"/>
<path d="M770.382 274.642C770.382 276.401 770.074 278.034 769.467 279.542C768.85 281.059 767.988 282.376 766.861 283.509C765.734 284.642 764.405 285.534 762.883 286.176C761.351 286.792 759.679 287.109 757.848 287.109C756.017 287.109 754.327 286.792 752.778 286.176C751.246 285.534 749.926 284.642 748.799 283.509C747.673 282.376 746.801 281.059 746.194 279.542C745.578 278.034 745.278 276.401 745.278 274.642C745.278 272.892 745.578 271.259 746.194 269.742C746.801 268.234 747.673 266.909 748.799 265.776C749.926 264.642 751.246 263.767 752.778 263.142C754.327 262.501 756.017 262.176 757.848 262.176C759.679 262.176 761.351 262.501 762.883 263.142C764.405 263.767 765.734 264.642 766.861 265.776C767.988 266.909 768.85 268.234 769.467 269.742C770.074 271.259 770.382 272.892 770.382 274.642ZM766.368 274.642C766.368 272.959 765.998 271.442 765.277 270.109C764.546 268.776 763.534 267.734 762.249 266.976C760.955 266.201 759.485 265.809 757.848 265.809C756.158 265.809 754.661 266.201 753.376 266.976C752.109 267.734 751.105 268.776 750.384 270.109C749.653 271.442 749.292 272.959 749.292 274.642C749.292 276.334 749.653 277.842 750.384 279.176C751.105 280.509 752.109 281.567 753.376 282.342C754.661 283.101 756.158 283.476 757.848 283.476C759.485 283.476 760.955 283.101 762.249 282.342C763.534 281.567 764.546 280.509 765.277 279.176C765.998 277.826 766.368 276.309 766.368 274.642Z" fill="white"/>
<path d="M787.142 262.309C788.621 262.309 789.976 262.509 791.226 262.909C792.467 263.292 793.559 263.792 794.501 264.409C795.46 265.034 796.208 265.709 796.754 266.442L794.184 268.942C793.198 268.076 792.115 267.367 790.945 266.809C789.792 266.234 788.524 265.942 787.142 265.942C785.426 265.942 783.868 266.334 782.459 267.109C781.051 267.867 779.933 268.901 779.115 270.209C778.314 271.501 777.918 272.976 777.918 274.642C777.918 276.292 778.34 277.776 779.185 279.109C780.048 280.442 781.201 281.509 782.636 282.309C784.061 283.092 785.628 283.476 787.318 283.476C788.533 283.476 789.677 283.259 790.733 282.809C791.807 282.367 792.679 281.759 793.339 280.976C794.017 280.176 794.36 279.267 794.36 278.242C794.36 278.134 794.36 278.067 794.36 278.042H787.072V274.342H798.444C798.488 274.676 798.523 275.026 798.55 275.376C798.594 275.709 798.62 276.059 798.62 276.409C798.62 277.676 798.418 278.926 798.022 280.142C797.617 281.367 796.983 282.434 796.12 283.342C795.152 284.501 793.902 285.426 792.353 286.109C790.804 286.776 789.079 287.109 787.177 287.109C785.32 287.109 783.586 286.792 781.967 286.176C780.365 285.534 778.956 284.642 777.742 283.509C776.518 282.376 775.567 281.059 774.89 279.542C774.23 278.034 773.904 276.401 773.904 274.642C773.904 272.892 774.23 271.267 774.89 269.776C775.567 268.292 776.509 266.992 777.706 265.876C778.921 264.742 780.329 263.867 781.931 263.242C783.551 262.626 785.285 262.309 787.142 262.309Z" fill="white"/>
<path d="M823.984 262.509L814.619 275.976V286.776H810.64V276.042L800.535 262.509H805.324L812.717 272.576L819.442 262.509H823.984Z" fill="white"/>
</g>
<defs>
<clipPath id="clip0_1_2">
<rect width="845" height="320" fill="white"/>
</clipPath>
</defs>
</svg>
